<mxfile host="app.diagrams.net" modified="2022-11-08T11:10:20.448Z" agent="5.0 (Macintosh; Intel Mac OS X 10_15_7) AppleWebKit/605.1.15 (KHTML, like Gecko) Version/15.5 Safari/605.1.15" etag="qSfhOBF24uIwGkt7rJVl" version="20.5.2" type="github">
  <diagram name="Page-1" id="c4acf3e9-155e-7222-9cf6-157b1a14988f">
    <mxGraphModel dx="1572" dy="1090" grid="1" gridSize="10" guides="1" tooltips="1" connect="1" arrows="1" fold="1" page="1" pageScale="1" pageWidth="850" pageHeight="1100" background="none" math="0" shadow="0">
      <root>
        <mxCell id="0" />
        <mxCell id="1" parent="0" />
        <mxCell id="17acba5748e5396b-1" value="IntHome" style="shape=umlFrame;whiteSpace=wrap;html=1;rounded=0;shadow=0;comic=0;labelBackgroundColor=none;strokeWidth=1;fontFamily=Verdana;fontSize=10;align=center;width=130;height=40;" parent="1" vertex="1">
          <mxGeometry x="105" y="40" width="715" height="1040" as="geometry" />
        </mxCell>
        <mxCell id="5d2195bd80daf111-38" style="edgeStyle=orthogonalEdgeStyle;rounded=0;html=1;dashed=1;labelBackgroundColor=none;startFill=0;endArrow=open;endFill=0;endSize=10;fontFamily=Verdana;fontSize=10;" parent="1" target="5d2195bd80daf111-9" edge="1">
          <mxGeometry relative="1" as="geometry">
            <Array as="points">
              <mxPoint x="590" y="721" />
            </Array>
            <mxPoint x="650" y="721.0588235294117" as="sourcePoint" />
          </mxGeometry>
        </mxCell>
        <mxCell id="5d2195bd80daf111-40" style="edgeStyle=orthogonalEdgeStyle;rounded=0;html=1;dashed=1;labelBackgroundColor=none;startFill=0;endArrow=open;endFill=0;endSize=10;fontFamily=Verdana;fontSize=10;" parent="1" target="5d2195bd80daf111-1" edge="1">
          <mxGeometry relative="1" as="geometry">
            <Array as="points" />
            <mxPoint x="730" y="814.0000000000005" as="sourcePoint" />
          </mxGeometry>
        </mxCell>
        <mxCell id="5d2195bd80daf111-39" style="edgeStyle=orthogonalEdgeStyle;rounded=0;html=1;dashed=1;labelBackgroundColor=none;startFill=0;endArrow=open;endFill=0;endSize=10;fontFamily=Verdana;fontSize=10;" parent="1" target="17acba5748e5396b-44" edge="1">
          <mxGeometry relative="1" as="geometry">
            <mxPoint x="730" y="948" as="sourcePoint" />
          </mxGeometry>
        </mxCell>
        <mxCell id="5d2195bd80daf111-35" style="edgeStyle=orthogonalEdgeStyle;rounded=0;html=1;dashed=1;labelBackgroundColor=none;startFill=0;endArrow=open;endFill=0;endSize=10;fontFamily=Verdana;fontSize=10;" parent="1" target="5d2195bd80daf111-8" edge="1">
          <mxGeometry relative="1" as="geometry">
            <Array as="points">
              <mxPoint x="545" y="970" />
              <mxPoint x="545" y="970" />
            </Array>
            <mxPoint x="545" y="963" as="sourcePoint" />
          </mxGeometry>
        </mxCell>
        <mxCell id="5d2195bd80daf111-34" style="edgeStyle=orthogonalEdgeStyle;rounded=0;html=1;dashed=1;labelBackgroundColor=none;startFill=0;endArrow=open;endFill=0;endSize=10;fontFamily=Verdana;fontSize=10;" parent="1" target="5d2195bd80daf111-8" edge="1">
          <mxGeometry relative="1" as="geometry">
            <Array as="points">
              <mxPoint x="410" y="1029" />
              <mxPoint x="410" y="1029" />
            </Array>
            <mxPoint x="380" y="1028.9411764705883" as="sourcePoint" />
          </mxGeometry>
        </mxCell>
        <mxCell id="5d2195bd80daf111-26" style="edgeStyle=orthogonalEdgeStyle;rounded=0;html=1;dashed=1;labelBackgroundColor=none;startFill=0;endArrow=open;endFill=0;endSize=10;fontFamily=Verdana;fontSize=10;" parent="1" target="5d2195bd80daf111-17" edge="1">
          <mxGeometry relative="1" as="geometry">
            <Array as="points" />
            <mxPoint x="640" y="300" as="sourcePoint" />
          </mxGeometry>
        </mxCell>
        <mxCell id="5d2195bd80daf111-25" style="edgeStyle=orthogonalEdgeStyle;rounded=0;html=1;dashed=1;labelBackgroundColor=none;startFill=0;endArrow=open;endFill=0;endSize=10;fontFamily=Verdana;fontSize=10;" parent="1" target="5d2195bd80daf111-15" edge="1">
          <mxGeometry relative="1" as="geometry">
            <Array as="points">
              <mxPoint x="370" y="340" />
              <mxPoint x="370" y="300" />
            </Array>
            <mxPoint x="250" y="340.0000000000002" as="sourcePoint" />
          </mxGeometry>
        </mxCell>
        <mxCell id="5d2195bd80daf111-29" style="edgeStyle=orthogonalEdgeStyle;rounded=0;html=1;dashed=1;labelBackgroundColor=none;startFill=0;endArrow=open;endFill=0;endSize=10;fontFamily=Verdana;fontSize=10;" parent="1" target="5d2195bd80daf111-13" edge="1">
          <mxGeometry relative="1" as="geometry">
            <mxPoint x="250" y="520" as="sourcePoint" />
          </mxGeometry>
        </mxCell>
        <mxCell id="5d2195bd80daf111-31" style="edgeStyle=orthogonalEdgeStyle;rounded=0;html=1;dashed=1;labelBackgroundColor=none;startFill=0;endArrow=open;endFill=0;endSize=10;fontFamily=Verdana;fontSize=10;" parent="1" target="5d2195bd80daf111-5" edge="1">
          <mxGeometry relative="1" as="geometry">
            <Array as="points">
              <mxPoint x="350" y="560" />
              <mxPoint x="350" y="560" />
            </Array>
            <mxPoint x="250" y="560" as="sourcePoint" />
          </mxGeometry>
        </mxCell>
        <object label="Administrator" id="PHYVLvbzrPYlIdp5-isp-2">
          <mxCell style="shape=umlActor;verticalLabelPosition=bottom;verticalAlign=top;html=1;" vertex="1" parent="1">
            <mxGeometry x="39" y="135" width="30" height="60" as="geometry" />
          </mxCell>
        </object>
        <mxCell id="PHYVLvbzrPYlIdp5-isp-14" value="Besucher" style="shape=umlActor;verticalLabelPosition=bottom;verticalAlign=top;html=1;" vertex="1" parent="1">
          <mxGeometry x="39" y="633" width="30" height="60" as="geometry" />
        </mxCell>
        <mxCell id="PHYVLvbzrPYlIdp5-isp-19" value="Account erstellen" style="ellipse;whiteSpace=wrap;html=1;" vertex="1" parent="1">
          <mxGeometry x="213" y="695" width="130" height="60" as="geometry" />
        </mxCell>
        <mxCell id="PHYVLvbzrPYlIdp5-isp-25" value="&lt;br&gt;&lt;br&gt;&lt;br&gt;Nutzendenprofil anlegen:&lt;br&gt;&lt;br&gt;&lt;br&gt;Dateneingabe&lt;br&gt;(Pseudonym,Namen, E-mail, Passwort)&lt;br&gt;Profilbild hochladen" style="ellipse;whiteSpace=wrap;html=1;" vertex="1" parent="1">
          <mxGeometry x="157.5" y="856" width="242.5" height="174" as="geometry" />
        </mxCell>
        <mxCell id="PHYVLvbzrPYlIdp5-isp-27" value="&amp;lt;&amp;lt; includes &amp;gt;&amp;gt;" style="endArrow=open;endSize=12;dashed=1;html=1;rounded=0;exitX=0.5;exitY=1;exitDx=0;exitDy=0;" edge="1" parent="1" source="PHYVLvbzrPYlIdp5-isp-19" target="PHYVLvbzrPYlIdp5-isp-25">
          <mxGeometry width="160" relative="1" as="geometry">
            <mxPoint x="340" y="930" as="sourcePoint" />
            <mxPoint x="500" y="930" as="targetPoint" />
          </mxGeometry>
        </mxCell>
        <mxCell id="PHYVLvbzrPYlIdp5-isp-33" value="Anzeigen der Status aller Geräte" style="ellipse;whiteSpace=wrap;html=1;" vertex="1" parent="1">
          <mxGeometry x="170" y="547" width="170" height="63" as="geometry" />
        </mxCell>
        <mxCell id="PHYVLvbzrPYlIdp5-isp-34" value="" style="endArrow=none;html=1;rounded=0;" edge="1" parent="1">
          <mxGeometry width="50" height="50" relative="1" as="geometry">
            <mxPoint x="80" y="440" as="sourcePoint" />
            <mxPoint x="202" y="420" as="targetPoint" />
          </mxGeometry>
        </mxCell>
        <mxCell id="PHYVLvbzrPYlIdp5-isp-38" value="" style="endArrow=none;html=1;rounded=0;" edge="1" parent="1">
          <mxGeometry width="50" height="50" relative="1" as="geometry">
            <mxPoint x="87" y="669.9963157894738" as="sourcePoint" />
            <mxPoint x="207" y="719.47" as="targetPoint" />
            <Array as="points">
              <mxPoint x="157" y="699.47" />
            </Array>
          </mxGeometry>
        </mxCell>
        <mxCell id="PHYVLvbzrPYlIdp5-isp-39" value="Nutzer" style="shape=umlActor;verticalLabelPosition=bottom;verticalAlign=top;html=1;outlineConnect=0;" vertex="1" parent="1">
          <mxGeometry x="38" y="423" width="30" height="60" as="geometry" />
        </mxCell>
        <mxCell id="PHYVLvbzrPYlIdp5-isp-40" value="" style="endArrow=none;html=1;rounded=0;entryX=0;entryY=0;entryDx=0;entryDy=0;" edge="1" parent="1" target="PHYVLvbzrPYlIdp5-isp-33">
          <mxGeometry width="50" height="50" relative="1" as="geometry">
            <mxPoint x="75" y="469.9963157894738" as="sourcePoint" />
            <mxPoint x="182" y="548" as="targetPoint" />
            <Array as="points" />
          </mxGeometry>
        </mxCell>
        <mxCell id="PHYVLvbzrPYlIdp5-isp-41" value="Bedienen ein freigeschaltetes Gerät" style="ellipse;whiteSpace=wrap;html=1;" vertex="1" parent="1">
          <mxGeometry x="201" y="385" width="162" height="60" as="geometry" />
        </mxCell>
        <mxCell id="PHYVLvbzrPYlIdp5-isp-43" value="&amp;lt;&amp;lt;includes &amp;gt;&amp;gt;" style="endArrow=open;endSize=12;dashed=1;html=1;rounded=0;exitX=0.5;exitY=1;exitDx=0;exitDy=0;" edge="1" parent="1" source="PHYVLvbzrPYlIdp5-isp-41">
          <mxGeometry x="-0.3776" y="42" width="160" relative="1" as="geometry">
            <mxPoint x="290" y="480" as="sourcePoint" />
            <mxPoint x="282" y="550" as="targetPoint" />
            <mxPoint as="offset" />
          </mxGeometry>
        </mxCell>
        <mxCell id="PHYVLvbzrPYlIdp5-isp-47" value="Zugriff am Accountssystem" style="ellipse;whiteSpace=wrap;html=1;" vertex="1" parent="1">
          <mxGeometry x="214" y="170" width="130" height="60" as="geometry" />
        </mxCell>
        <mxCell id="PHYVLvbzrPYlIdp5-isp-48" value="" style="endArrow=none;html=1;rounded=0;" edge="1" parent="1">
          <mxGeometry width="50" height="50" relative="1" as="geometry">
            <mxPoint x="80" y="164" as="sourcePoint" />
            <mxPoint x="217" y="140" as="targetPoint" />
          </mxGeometry>
        </mxCell>
        <mxCell id="PHYVLvbzrPYlIdp5-isp-51" value="&amp;lt;&amp;lt; includes &amp;gt;&amp;gt;" style="endArrow=open;endSize=12;dashed=1;html=1;rounded=0;exitX=1;exitY=0.5;exitDx=0;exitDy=0;" edge="1" parent="1">
          <mxGeometry width="160" relative="1" as="geometry">
            <mxPoint x="349" y="202" as="sourcePoint" />
            <mxPoint x="552" y="202" as="targetPoint" />
          </mxGeometry>
        </mxCell>
        <mxCell id="PHYVLvbzrPYlIdp5-isp-53" value="Auswahl ein Accountssystem" style="ellipse;whiteSpace=wrap;html=1;" vertex="1" parent="1">
          <mxGeometry x="551" y="170" width="130" height="60" as="geometry" />
        </mxCell>
        <mxCell id="PHYVLvbzrPYlIdp5-isp-54" value="&amp;lt;&amp;lt; includes &amp;gt;&amp;gt;" style="endArrow=open;endSize=12;dashed=1;html=1;rounded=0;entryX=1;entryY=0.5;entryDx=0;entryDy=0;exitX=1;exitY=1;exitDx=0;exitDy=0;" edge="1" parent="1" source="PHYVLvbzrPYlIdp5-isp-53">
          <mxGeometry x="-0.2599" y="1" width="160" relative="1" as="geometry">
            <mxPoint x="721" y="210" as="sourcePoint" />
            <mxPoint x="400.4999999999991" y="928.0000000000002" as="targetPoint" />
            <Array as="points">
              <mxPoint x="663" y="928" />
            </Array>
            <mxPoint y="1" as="offset" />
          </mxGeometry>
        </mxCell>
        <mxCell id="PHYVLvbzrPYlIdp5-isp-55" value="Einschalten/ &lt;br&gt;Ausschalten&lt;br&gt;der Geräte" style="html=1;" vertex="1" parent="1">
          <mxGeometry x="362" y="557" width="168" height="61" as="geometry" />
        </mxCell>
        <mxCell id="PHYVLvbzrPYlIdp5-isp-56" value="" style="endArrow=none;dashed=1;html=1;rounded=0;entryX=0.5;entryY=0;entryDx=0;entryDy=0;" edge="1" parent="1">
          <mxGeometry width="50" height="50" relative="1" as="geometry">
            <mxPoint x="289" y="514" as="sourcePoint" />
            <mxPoint x="443" y="554" as="targetPoint" />
            <Array as="points" />
          </mxGeometry>
        </mxCell>
        <mxCell id="PHYVLvbzrPYlIdp5-isp-60" value="" style="endArrow=none;html=1;rounded=0;entryX=1;entryY=0.5;entryDx=0;entryDy=0;exitX=0;exitY=0.5;exitDx=0;exitDy=0;" edge="1" parent="1" source="PHYVLvbzrPYlIdp5-isp-25" target="PHYVLvbzrPYlIdp5-isp-25">
          <mxGeometry width="50" height="50" relative="1" as="geometry">
            <mxPoint x="213" y="930" as="sourcePoint" />
            <mxPoint x="263" y="880" as="targetPoint" />
          </mxGeometry>
        </mxCell>
        <mxCell id="PHYVLvbzrPYlIdp5-isp-62" value="&amp;lt;&amp;lt; includes &amp;gt;&amp;gt;" style="endArrow=open;endSize=12;dashed=1;html=1;rounded=0;" edge="1" parent="1">
          <mxGeometry x="0.1094" y="-5" width="160" relative="1" as="geometry">
            <mxPoint x="284" y="238.29" as="sourcePoint" />
            <mxPoint x="484.8839754911628" y="301.3816932610657" as="targetPoint" />
            <mxPoint as="offset" />
          </mxGeometry>
        </mxCell>
        <mxCell id="PHYVLvbzrPYlIdp5-isp-63" value="Anwendung einer Filter" style="ellipse;whiteSpace=wrap;html=1;" vertex="1" parent="1">
          <mxGeometry x="480" y="290" width="130" height="60" as="geometry" />
        </mxCell>
        <mxCell id="PHYVLvbzrPYlIdp5-isp-64" value="&amp;lt;&amp;lt; extends &amp;gt;&amp;gt;" style="endArrow=open;endSize=12;dashed=1;html=1;rounded=0;entryX=1;entryY=0;entryDx=0;entryDy=0;" edge="1" parent="1" target="PHYVLvbzrPYlIdp5-isp-25">
          <mxGeometry x="-0.6702" width="160" relative="1" as="geometry">
            <mxPoint x="588" y="342" as="sourcePoint" />
            <mxPoint x="352.6804915369096" y="882.6210774736364" as="targetPoint" />
            <Array as="points">
              <mxPoint x="588" y="351" />
              <mxPoint x="588" y="501" />
              <mxPoint x="588" y="751" />
              <mxPoint x="588" y="821" />
              <mxPoint x="588" y="883" />
            </Array>
            <mxPoint as="offset" />
          </mxGeometry>
        </mxCell>
        <mxCell id="PHYVLvbzrPYlIdp5-isp-66" value="Bestätigung der Auswahl" style="ellipse;whiteSpace=wrap;html=1;" vertex="1" parent="1">
          <mxGeometry x="217" y="100" width="130" height="60" as="geometry" />
        </mxCell>
        <mxCell id="PHYVLvbzrPYlIdp5-isp-67" value="" style="endArrow=none;html=1;rounded=0;entryX=0;entryY=0.5;entryDx=0;entryDy=0;" edge="1" parent="1">
          <mxGeometry width="50" height="50" relative="1" as="geometry">
            <mxPoint x="77" y="178.99631578947378" as="sourcePoint" />
            <mxPoint x="211" y="200" as="targetPoint" />
            <Array as="points" />
          </mxGeometry>
        </mxCell>
        <mxCell id="PHYVLvbzrPYlIdp5-isp-68" value="" style="endArrow=none;dashed=1;html=1;rounded=0;entryX=0.25;entryY=1;entryDx=0;entryDy=0;" edge="1" parent="1" target="PHYVLvbzrPYlIdp5-isp-69">
          <mxGeometry width="50" height="50" relative="1" as="geometry">
            <mxPoint x="404" y="880" as="sourcePoint" />
            <mxPoint x="583.9999999999998" y="920" as="targetPoint" />
            <Array as="points" />
          </mxGeometry>
        </mxCell>
        <mxCell id="PHYVLvbzrPYlIdp5-isp-69" value="Eingabe ein Merkmal" style="html=1;" vertex="1" parent="1">
          <mxGeometry x="360" y="780" width="168" height="61" as="geometry" />
        </mxCell>
        <mxCell id="PHYVLvbzrPYlIdp5-isp-71" value="" style="endArrow=open;endFill=1;endSize=12;html=1;rounded=0;exitX=1;exitY=0.5;exitDx=0;exitDy=0;entryX=1;entryY=0.5;entryDx=0;entryDy=0;" edge="1" parent="1" source="PHYVLvbzrPYlIdp5-isp-53" target="PHYVLvbzrPYlIdp5-isp-66">
          <mxGeometry width="160" relative="1" as="geometry">
            <mxPoint x="362" y="1030" as="sourcePoint" />
            <mxPoint x="522" y="1030" as="targetPoint" />
            <Array as="points">
              <mxPoint x="800" y="200" />
              <mxPoint x="800" y="130" />
            </Array>
          </mxGeometry>
        </mxCell>
        <mxCell id="PHYVLvbzrPYlIdp5-isp-72" value="&amp;lt;&amp;lt; includes &amp;gt;&amp;gt;" style="endArrow=open;endSize=12;dashed=1;html=1;rounded=0;exitX=0.5;exitY=1;exitDx=0;exitDy=0;entryX=0.5;entryY=0;entryDx=0;entryDy=0;" edge="1" parent="1" source="PHYVLvbzrPYlIdp5-isp-53" target="PHYVLvbzrPYlIdp5-isp-63">
          <mxGeometry width="160" relative="1" as="geometry">
            <mxPoint x="540" y="610" as="sourcePoint" />
            <mxPoint x="700" y="610" as="targetPoint" />
          </mxGeometry>
        </mxCell>
      </root>
    </mxGraphModel>
  </diagram>
</mxfile>
